<svg width="27" height="27" viewBox="0 0 27 27" fill="none" xmlns="http://www.w3.org/2000/svg">
<path d="M11.3511 13.4604L10.1646 12.2739L18.5625 3.86279L26.9604 12.2739L25.7739 13.4604L25.3125 13.0122V20.25H20.25V15.1875H16.875V20.25H11.8125V13.0122L11.3511 13.4604ZM13.5 18.5625H15.1875V13.5H21.9375V18.5625H23.625V11.3247L18.5625 6.26221L13.5 11.3247V18.5625ZM27 21.9375V23.625H0V21.9375H27ZM3.375 15.1084C2.88281 15.0117 2.43457 14.8359 2.03027 14.5811C1.62598 14.3262 1.27002 14.0098 0.962402 13.6318C0.654785 13.2539 0.41748 12.8452 0.250488 12.4058C0.0834961 11.9663 0 11.4873 0 10.9688C0 10.3271 0.0615234 9.74707 0.18457 9.22852C0.307617 8.70996 0.470215 8.20898 0.672363 7.72559C0.874512 7.24219 1.10742 6.75439 1.37109 6.26221C1.63477 5.77002 1.91602 5.23389 2.21484 4.65381C2.30273 4.47803 2.41699 4.31104 2.55762 4.15283C2.69824 3.99463 2.86084 3.8584 3.04541 3.74414C3.22998 3.62988 3.41895 3.54199 3.6123 3.48047C3.80566 3.41895 4.00781 3.38379 4.21875 3.375C4.64062 3.375 4.99658 3.47168 5.28662 3.66504C5.57666 3.8584 5.82715 4.10889 6.03809 4.4165C6.24902 4.72412 6.43799 5.04932 6.60498 5.39209C6.77197 5.73486 6.93018 6.06006 7.07959 6.36768L7.27734 6.76318C7.46191 7.13232 7.62451 7.4707 7.76514 7.77832C7.90576 8.08594 8.02881 8.39355 8.13428 8.70117C8.23975 9.00879 8.31445 9.34717 8.3584 9.71631C8.40234 10.0854 8.42871 10.5029 8.4375 10.9688C8.4375 11.4697 8.354 11.9443 8.18701 12.3926C8.02002 12.8408 7.78711 13.2539 7.48828 13.6318C7.18945 14.0098 6.8291 14.3218 6.40723 14.5679C5.98535 14.814 5.53711 14.9941 5.0625 15.1084V20.25H3.375V15.1084ZM4.21875 5.0625C4.13965 5.0625 4.03857 5.1416 3.91553 5.2998C3.79248 5.45801 3.65186 5.66016 3.49365 5.90625C3.33545 6.15234 3.18164 6.4248 3.03223 6.72363C2.88281 7.02246 2.73779 7.30811 2.59717 7.58057C2.45654 7.85303 2.33789 8.09912 2.24121 8.31885C2.14453 8.53857 2.07422 8.69238 2.03027 8.78027C1.89844 9.11426 1.81055 9.47461 1.7666 9.86133C1.72266 10.248 1.69629 10.6172 1.6875 10.9688C1.6875 11.3203 1.75342 11.6499 1.88525 11.9575C2.01709 12.2651 2.19727 12.5332 2.42578 12.7617C2.6543 12.9902 2.92236 13.1704 3.22998 13.3022C3.5376 13.4341 3.86719 13.5 4.21875 13.5C4.57031 13.5 4.8999 13.4341 5.20752 13.3022C5.51514 13.1704 5.7832 12.9902 6.01172 12.7617C6.24023 12.5332 6.42041 12.2651 6.55225 11.9575C6.68408 11.6499 6.75 11.3203 6.75 10.9688C6.75 10.6172 6.72803 10.248 6.68408 9.86133C6.64014 9.47461 6.54785 9.11426 6.40723 8.78027C6.37207 8.69238 6.30615 8.53857 6.20947 8.31885C6.11279 8.09912 5.99414 7.85303 5.85352 7.58057C5.71289 7.30811 5.56348 7.02246 5.40527 6.72363C5.24707 6.4248 5.09326 6.15234 4.94385 5.90625C4.79443 5.66016 4.6582 5.45801 4.53516 5.2998C4.41211 5.1416 4.30664 5.0625 4.21875 5.0625Z" fill="black"/>
</svg>
