<svg width="23" height="23" viewBox="0 0 23 23" fill="none" xmlns="http://www.w3.org/2000/svg">
<path d="M17.7292 2.875H15.3333C15.2063 2.875 15.0844 2.92548 14.9945 3.01534C14.9047 3.10521 14.8542 3.22708 14.8542 3.35417V3.41071L18.2083 6.09404V3.35417C18.2083 3.22708 18.1579 3.10521 18.068 3.01534C17.9781 2.92548 17.8563 2.875 17.7292 2.875Z" fill="black"/>
<path fill-rule="evenodd" clip-rule="evenodd" d="M10.3021 9.10417C10.3021 8.78646 10.4283 8.48176 10.653 8.25711C10.8776 8.03246 11.1823 7.90625 11.5 7.90625C11.8177 7.90625 12.1224 8.03246 12.3471 8.25711C12.5717 8.48176 12.6979 8.78646 12.6979 9.10417C12.6979 9.42187 12.5717 9.72657 12.3471 9.95122C12.1224 10.1759 11.8177 10.3021 11.5 10.3021C11.1823 10.3021 10.8776 10.1759 10.653 9.95122C10.4283 9.72657 10.3021 9.42187 10.3021 9.10417Z" fill="black"/>
<path fill-rule="evenodd" clip-rule="evenodd" d="M19.8854 10.5033L20.6348 11.1032C20.784 11.2195 20.973 11.2723 21.1609 11.2501C21.3487 11.2279 21.5202 11.1326 21.6383 10.9848C21.7563 10.8371 21.8113 10.6487 21.7914 10.4606C21.7715 10.2725 21.6782 10.0999 21.5318 9.98008L13.7454 3.75091C13.1081 3.24094 12.3162 2.9631 11.5 2.9631C10.6838 2.9631 9.89191 3.24094 9.25463 3.75091L1.46817 9.98008C1.31923 10.0992 1.22369 10.2725 1.20258 10.462C1.18146 10.6516 1.23649 10.8417 1.35557 10.9906C1.47464 11.1396 1.64801 11.2351 1.83753 11.2562C2.02704 11.2774 2.21719 11.2223 2.36613 11.1032L3.11459 10.5033V20.3646H1.91667C1.72605 20.3646 1.54323 20.4403 1.40844 20.5751C1.27365 20.7099 1.19792 20.8927 1.19792 21.0833C1.19792 21.2739 1.27365 21.4568 1.40844 21.5916C1.54323 21.7263 1.72605 21.8021 1.91667 21.8021H21.0833C21.274 21.8021 21.4568 21.7263 21.5916 21.5916C21.7264 21.4568 21.8021 21.2739 21.8021 21.0833C21.8021 20.8927 21.7264 20.7099 21.5916 20.5751C21.4568 20.4403 21.274 20.3646 21.0833 20.3646H19.8854V10.5033ZM8.86459 9.10416C8.86459 8.4052 9.14225 7.73487 9.63648 7.24064C10.1307 6.7464 10.801 6.46874 11.5 6.46874C12.199 6.46874 12.8693 6.7464 13.3635 7.24064C13.8578 7.73487 14.1354 8.4052 14.1354 9.10416C14.1354 9.80311 13.8578 10.4734 13.3635 10.9677C12.8693 11.4619 12.199 11.7396 11.5 11.7396C10.801 11.7396 10.1307 11.4619 9.63648 10.9677C9.14225 10.4734 8.86459 9.80311 8.86459 9.10416ZM11.5479 12.6979C12.1843 12.6979 12.7334 12.6979 13.1733 12.7573C13.6448 12.8206 14.0961 12.9634 14.4622 13.3295C14.8283 13.6955 14.9711 14.1469 15.0343 14.6184C15.0899 15.0305 15.0938 15.5384 15.0938 16.1259V20.3646H13.6563V16.2917C13.6563 15.594 13.6543 15.1417 13.6103 14.8101C13.5681 14.4986 13.501 14.4009 13.4454 14.3462C13.3908 14.2916 13.293 14.2236 12.9816 14.1814C12.649 14.1373 12.1977 14.1354 11.5 14.1354C10.8023 14.1354 10.35 14.1373 10.0184 14.1814C9.70696 14.2236 9.60921 14.2916 9.55459 14.3462C9.49996 14.4009 9.43192 14.4986 9.38976 14.8101C9.34567 15.1426 9.34375 15.594 9.34375 16.2917V20.3646H7.90625V16.2437C7.90625 15.6074 7.90626 15.0583 7.96567 14.6184C8.02892 14.1469 8.17171 13.6955 8.5378 13.3295C8.90388 12.9634 9.35621 12.8206 9.82675 12.7573C10.2666 12.6979 10.8158 12.6979 11.453 12.6979H11.547H11.5479Z" fill="black"/>
<path fill-rule="evenodd" clip-rule="evenodd" d="M10.3021 9.10417C10.3021 8.78646 10.4283 8.48176 10.653 8.25711C10.8776 8.03246 11.1823 7.90625 11.5 7.90625C11.8177 7.90625 12.1224 8.03246 12.3471 8.25711C12.5717 8.48176 12.6979 8.78646 12.6979 9.10417C12.6979 9.42187 12.5717 9.72657 12.3471 9.95122C12.1224 10.1759 11.8177 10.3021 11.5 10.3021C11.1823 10.3021 10.8776 10.1759 10.653 9.95122C10.4283 9.72657 10.3021 9.42187 10.3021 9.10417Z" fill="black"/>
</svg>
