<svg width="70" height="70" viewBox="0 0 70 70" fill="none" xmlns="http://www.w3.org/2000/svg">
<path d="M64.1668 8.75004L29.1668 12.8625V17.5H64.1668V20.4167H29.1668V35H64.1668C64.1668 40.2792 62.5043 45.0917 59.2668 49.4375C56.0293 53.7834 51.8293 56.9625 46.6668 59.0625V64.1667H23.3335V59.0625C18.2002 56.9625 13.971 53.7542 10.7335 49.4375C7.496 45.1209 5.8335 40.2792 5.8335 35H14.5835V11.6667L64.1668 5.83337V8.75004ZM17.5002 14.2334V17.5H20.4168V13.9417L17.5002 14.2334ZM17.5002 20.4167V35H20.4168V20.4167H17.5002ZM26.2502 35V20.4167H23.3335V35H26.2502ZM26.2502 17.5V13.2709L23.3335 13.5334V17.5H26.2502Z" fill="white"/>
</svg>
