<svg width="35" height="35" viewBox="0 0 35 35" fill="none" xmlns="http://www.w3.org/2000/svg">
<path d="M18.3203 16.4063V24.0625C18.3203 24.2801 18.2339 24.4887 18.08 24.6426C17.9262 24.7964 17.7175 24.8828 17.5 24.8828C17.2824 24.8828 17.0738 24.7964 16.9199 24.6426C16.7661 24.4887 16.6797 24.2801 16.6797 24.0625V16.4063C16.6797 16.1887 16.7661 15.9801 16.9199 15.8262C17.0738 15.6724 17.2824 15.586 17.5 15.586C17.7175 15.586 17.9262 15.6724 18.08 15.8262C18.2339 15.9801 18.3203 16.1887 18.3203 16.4063ZM32.5226 13.3779L30.625 27.5967C30.5637 28.0563 30.3377 28.478 29.9889 28.7835C29.6402 29.0891 29.1924 29.2576 28.7287 29.2578H6.27128C5.80762 29.2576 5.35981 29.0891 5.01104 28.7835C4.66227 28.478 4.43626 28.0563 4.37499 27.5967L2.4787 13.3779C2.44267 13.1077 2.46479 12.8329 2.54358 12.5719C2.62237 12.3109 2.75601 12.0697 2.93555 11.8645C3.1151 11.6594 3.3364 11.4949 3.58464 11.3822C3.83289 11.2695 4.10235 11.2111 4.37499 11.211H9.47186L16.882 2.74123C16.959 2.65394 17.0537 2.58403 17.1597 2.53615C17.2658 2.48827 17.3809 2.4635 17.4973 2.4635C17.6136 2.4635 17.7287 2.48827 17.8348 2.53615C17.9408 2.58403 18.0355 2.65394 18.1125 2.74123L25.5226 11.2178H30.625C30.8976 11.2179 31.1671 11.2763 31.4153 11.389C31.6636 11.5017 31.8849 11.6662 32.0644 11.8714C32.244 12.0765 32.3776 12.3177 32.4564 12.5787C32.5352 12.8397 32.5573 13.1145 32.5213 13.3848L32.5226 13.3779ZM11.6512 11.211H23.3488L17.5 4.52677L11.6512 11.211ZM30.8301 12.9445C30.8044 12.9154 30.7729 12.892 30.7375 12.876C30.7022 12.8599 30.6638 12.8516 30.625 12.8516H4.37499C4.33593 12.8514 4.2973 12.8597 4.26169 12.8757C4.22608 12.8917 4.19432 12.9152 4.16854 12.9445C4.14261 12.9737 4.12322 13.008 4.11167 13.0453C4.10011 13.0826 4.09666 13.1219 4.10155 13.1606L5.99647 27.3793C6.00546 27.4453 6.03818 27.5057 6.08852 27.5492C6.13886 27.5928 6.20335 27.6164 6.26991 27.6158H28.7287C28.7953 27.6164 28.8597 27.5928 28.9101 27.5492C28.9604 27.5057 28.9932 27.4453 29.0021 27.3793L30.8984 13.1606C30.9038 13.1217 30.9004 13.0822 30.8886 13.0448C30.8768 13.0075 30.8568 12.9732 30.8301 12.9445ZM24.8008 15.586C24.6936 15.5752 24.5853 15.5856 24.4822 15.6167C24.379 15.6478 24.283 15.6988 24.1996 15.767C24.1162 15.8352 24.047 15.9191 23.996 16.014C23.9451 16.1089 23.9133 16.2129 23.9025 16.3201L23.1369 23.9764C23.125 24.0842 23.1346 24.1933 23.1651 24.2974C23.1956 24.4015 23.2465 24.4985 23.3148 24.5828C23.3831 24.6671 23.4674 24.7371 23.5629 24.7886C23.6584 24.8401 23.7631 24.8721 23.8711 24.8828H23.9545C24.1585 24.8839 24.3557 24.8088 24.5074 24.6723C24.659 24.5357 24.7544 24.3476 24.7748 24.1445L25.5404 16.4883C25.5517 16.3804 25.5415 16.2713 25.5104 16.1673C25.4792 16.0634 25.4278 15.9666 25.359 15.8827C25.2902 15.7988 25.2054 15.7293 25.1096 15.6784C25.0138 15.6275 24.9088 15.596 24.8008 15.586ZM11.0974 16.3242C11.0757 16.1078 10.9688 15.9088 10.8004 15.7711C10.6319 15.6334 10.4157 15.5683 10.1992 15.5901C9.98273 15.6118 9.78377 15.7187 9.64608 15.8871C9.5084 16.0556 9.44327 16.2718 9.46503 16.4883L10.2307 24.1445C10.2511 24.3476 10.3464 24.5357 10.4981 24.6723C10.6498 24.8088 10.8469 24.8839 11.051 24.8828H11.1344C11.2416 24.8721 11.3456 24.8403 11.4405 24.7893C11.5354 24.7383 11.6193 24.6692 11.6875 24.5858C11.7557 24.5024 11.8067 24.4063 11.8378 24.3032C11.8689 24.2 11.8793 24.0918 11.8685 23.9846L11.0974 16.3242Z" fill="white"/>
</svg>
