<svg width="32" height="30" viewBox="0 0 32 30" fill="none" xmlns="http://www.w3.org/2000/svg">
<path d="M27.9167 5.30769H22.5V4.23077C22.5 3.37392 22.1576 2.55216 21.5481 1.94627C20.9386 1.34038 20.112 1 19.25 1H12.75C11.888 1 11.0614 1.34038 10.4519 1.94627C9.84241 2.55216 9.5 3.37392 9.5 4.23077V5.30769H4.08333C3.79602 5.30769 3.52047 5.42115 3.3173 5.62312C3.11414 5.82508 3 6.099 3 6.38462C3 6.67023 3.11414 6.94415 3.3173 7.14612C3.52047 7.34808 3.79602 7.46154 4.08333 7.46154H5.16667V26.8462C5.16667 27.4174 5.39494 27.9652 5.80127 28.3692C6.2076 28.7731 6.7587 29 7.33333 29H24.6667C25.2413 29 25.7924 28.7731 26.1987 28.3692C26.6051 27.9652 26.8333 27.4174 26.8333 26.8462V7.46154H27.9167C28.204 7.46154 28.4795 7.34808 28.6827 7.14612C28.8859 6.94415 29 6.67023 29 6.38462C29 6.099 28.8859 5.82508 28.6827 5.62312C28.4795 5.42115 28.204 5.30769 27.9167 5.30769ZM11.6667 4.23077C11.6667 3.94515 11.7808 3.67123 11.984 3.46927C12.1871 3.26731 12.4627 3.15385 12.75 3.15385H19.25C19.5373 3.15385 19.8129 3.26731 20.016 3.46927C20.2192 3.67123 20.3333 3.94515 20.3333 4.23077V5.30769H11.6667V4.23077ZM24.6667 26.8462H7.33333V7.46154H24.6667V26.8462ZM13.8333 12.8462V21.4615C13.8333 21.7472 13.7192 22.0211 13.516 22.223C13.3129 22.425 13.0373 22.5385 12.75 22.5385C12.4627 22.5385 12.1871 22.425 11.984 22.223C11.7808 22.0211 11.6667 21.7472 11.6667 21.4615V12.8462C11.6667 12.5605 11.7808 12.2866 11.984 12.0847C12.1871 11.8827 12.4627 11.7692 12.75 11.7692C13.0373 11.7692 13.3129 11.8827 13.516 12.0847C13.7192 12.2866 13.8333 12.5605 13.8333 12.8462ZM20.3333 12.8462V21.4615C20.3333 21.7472 20.2192 22.0211 20.016 22.223C19.8129 22.425 19.5373 22.5385 19.25 22.5385C18.9627 22.5385 18.6871 22.425 18.484 22.223C18.2808 22.0211 18.1667 21.7472 18.1667 21.4615V12.8462C18.1667 12.5605 18.2808 12.2866 18.484 12.0847C18.6871 11.8827 18.9627 11.7692 19.25 11.7692C19.5373 11.7692 19.8129 11.8827 20.016 12.0847C20.2192 12.2866 20.3333 12.5605 20.3333 12.8462Z" fill="#A408A7"/>
</svg>
