<svg width="76" height="76" viewBox="0 0 76 76" fill="none" xmlns="http://www.w3.org/2000/svg">
<g clip-path="url(#clip0_113_202)">
<rect width="76" height="76" fill="white"/>
<path fill-rule="evenodd" clip-rule="evenodd" d="M37.9997 6.33337C20.5102 6.33337 6.33301 20.5105 6.33301 38C6.33301 55.4895 20.5102 69.6667 37.9997 69.6667C55.4892 69.6667 69.6663 55.4895 69.6663 38C69.6663 20.5105 55.4892 6.33337 37.9997 6.33337ZM26.9163 30.0834C26.9163 28.6279 27.203 27.1867 27.76 25.842C28.317 24.4973 29.1334 23.2755 30.1626 22.2463C31.1918 21.2171 32.4136 20.4007 33.7583 19.8437C35.103 19.2867 36.5442 19 37.9997 19C39.4552 19 40.8964 19.2867 42.2411 19.8437C43.5858 20.4007 44.8076 21.2171 45.8368 22.2463C46.866 23.2755 47.6824 24.4973 48.2393 25.842C48.7963 27.1867 49.083 28.6279 49.083 30.0834C49.083 33.0229 47.9153 35.8419 45.8368 37.9205C43.7582 39.999 40.9392 41.1667 37.9997 41.1667C35.0602 41.1667 32.2411 39.999 30.1626 37.9205C28.084 35.8419 26.9163 33.0229 26.9163 30.0834ZM57.8167 53.7827C55.4462 56.7645 52.4327 59.1722 49.0012 60.826C45.5697 62.4798 41.8089 63.3369 37.9997 63.3334C34.1904 63.3369 30.4296 62.4798 26.9981 60.826C23.5666 59.1722 20.5531 56.7645 18.1827 53.7827C23.3158 50.0999 30.3205 47.5 37.9997 47.5C45.6788 47.5 52.6835 50.0999 57.8167 53.7827Z" fill="#A408A7"/>
</g>
<defs>
<clipPath id="clip0_113_202">
<rect width="76" height="76" fill="white"/>
</clipPath>
</defs>
</svg>
